<?xml version="1.0" encoding="UTF-8"?>
<svg xmlns="http://www.w3.org/2000/svg" version="1.1" width="200" height="200" viewBox="0 0 200 200"><rect x="0" y="0" width="200" height="200" fill="#ffffcc"/><g transform="scale(5.405)"><g transform="translate(0,0)"><path fill-rule="evenodd" d="M8 0L8 2L9 2L9 3L8 3L8 7L9 7L9 3L10 3L10 5L11 5L11 4L12 4L12 7L11 7L11 6L10 6L10 8L11 8L11 9L12 9L12 10L10 10L10 9L9 9L9 10L8 10L8 9L7 9L7 8L6 8L6 9L4 9L4 8L3 8L3 9L1 9L1 12L0 12L0 14L1 14L1 12L5 12L5 11L2 11L2 10L6 10L6 11L9 11L9 12L8 12L8 14L6 14L6 13L7 13L7 12L6 12L6 13L5 13L5 14L3 14L3 13L2 13L2 16L1 16L1 15L0 15L0 16L1 16L1 17L0 17L0 18L2 18L2 20L1 20L1 19L0 19L0 20L1 20L1 21L0 21L0 22L1 22L1 23L0 23L0 25L1 25L1 23L2 23L2 26L3 26L3 24L4 24L4 25L5 25L5 26L4 26L4 28L2 28L2 27L1 27L1 26L0 26L0 27L1 27L1 28L0 28L0 29L4 29L4 28L6 28L6 29L7 29L7 28L8 28L8 30L9 30L9 27L12 27L12 29L11 29L11 30L10 30L10 31L9 31L9 33L8 33L8 34L9 34L9 37L10 37L10 35L11 35L11 36L12 36L12 35L14 35L14 37L15 37L15 35L14 35L14 34L13 34L13 32L14 32L14 33L16 33L16 32L17 32L17 34L16 34L16 35L17 35L17 36L19 36L19 37L20 37L20 35L21 35L21 32L22 32L22 33L23 33L23 34L22 34L22 35L23 35L23 36L22 36L22 37L23 37L23 36L24 36L24 37L29 37L29 35L30 35L30 33L32 33L32 35L33 35L33 33L34 33L34 35L35 35L35 34L36 34L36 35L37 35L37 33L34 33L34 32L35 32L35 31L36 31L36 32L37 32L37 25L36 25L36 24L37 24L37 21L36 21L36 20L37 20L37 13L36 13L36 12L37 12L37 8L35 8L35 10L34 10L34 8L31 8L31 9L29 9L29 10L30 10L30 11L31 11L31 12L29 12L29 11L28 11L28 12L29 12L29 13L30 13L30 14L32 14L32 15L31 15L31 16L29 16L29 14L28 14L28 15L26 15L26 11L25 11L25 12L24 12L24 11L22 11L22 10L21 10L21 8L22 8L22 7L23 7L23 6L24 6L24 7L25 7L25 6L26 6L26 8L24 8L24 9L23 9L23 10L25 10L25 9L26 9L26 10L27 10L27 9L28 9L28 8L27 8L27 6L28 6L28 7L29 7L29 5L28 5L28 3L29 3L29 2L28 2L28 0L26 0L26 1L25 1L25 2L26 2L26 1L27 1L27 3L26 3L26 4L24 4L24 5L23 5L23 4L22 4L22 3L23 3L23 2L22 2L22 0L21 0L21 1L20 1L20 0L15 0L15 2L14 2L14 0L12 0L12 1L11 1L11 0L10 0L10 1L9 1L9 0ZM23 0L23 1L24 1L24 0ZM10 1L10 3L14 3L14 2L13 2L13 1L12 1L12 2L11 2L11 1ZM16 1L16 3L15 3L15 4L14 4L14 5L15 5L15 4L16 4L16 3L17 3L17 2L18 2L18 3L19 3L19 4L20 4L20 6L19 6L19 7L20 7L20 8L19 8L19 9L20 9L20 8L21 8L21 7L22 7L22 6L23 6L23 5L22 5L22 4L21 4L21 3L22 3L22 2L21 2L21 3L19 3L19 1ZM17 4L17 7L16 7L16 6L15 6L15 7L16 7L16 9L15 9L15 11L16 11L16 12L17 12L17 13L16 13L16 15L14 15L14 14L13 14L13 13L15 13L15 12L14 12L14 10L13 10L13 13L12 13L12 15L11 15L11 14L8 14L8 15L6 15L6 14L5 14L5 15L3 15L3 16L2 16L2 18L3 18L3 20L2 20L2 22L4 22L4 24L8 24L8 25L6 25L6 26L5 26L5 27L6 27L6 28L7 28L7 27L6 27L6 26L8 26L8 27L9 27L9 26L8 26L8 25L10 25L10 26L12 26L12 27L14 27L14 29L12 29L12 31L10 31L10 33L11 33L11 34L12 34L12 32L13 32L13 31L14 31L14 32L15 32L15 31L16 31L16 30L18 30L18 31L17 31L17 32L18 32L18 31L19 31L19 32L21 32L21 31L19 31L19 29L20 29L20 28L19 28L19 27L21 27L21 30L23 30L23 33L24 33L24 34L23 34L23 35L24 35L24 34L25 34L25 35L26 35L26 36L27 36L27 35L29 35L29 34L28 34L28 31L27 31L27 30L28 30L28 26L29 26L29 25L27 25L27 24L30 24L30 20L31 20L31 19L30 19L30 18L28 18L28 17L29 17L29 16L27 16L27 18L25 18L25 17L26 17L26 16L25 16L25 14L21 14L21 13L24 13L24 12L21 12L21 13L20 13L20 12L19 12L19 13L18 13L18 10L17 10L17 11L16 11L16 9L17 9L17 7L18 7L18 4ZM13 6L13 7L12 7L12 9L14 9L14 6ZM20 6L20 7L21 7L21 6ZM26 8L26 9L27 9L27 8ZM6 9L6 10L7 10L7 9ZM31 9L31 11L33 11L33 9ZM19 10L19 11L20 11L20 10ZM10 11L10 13L11 13L11 11ZM34 11L34 14L33 14L33 12L31 12L31 13L32 13L32 14L33 14L33 15L32 15L32 17L33 17L33 16L35 16L35 15L36 15L36 14L35 14L35 11ZM34 14L34 15L35 15L35 14ZM5 15L5 17L4 17L4 16L3 16L3 18L5 18L5 19L4 19L4 20L3 20L3 21L4 21L4 22L5 22L5 23L8 23L8 24L10 24L10 23L9 23L9 22L8 22L8 21L11 21L11 22L12 22L12 23L11 23L11 25L12 25L12 26L13 26L13 25L12 25L12 24L14 24L14 25L15 25L15 26L16 26L16 28L15 28L15 29L14 29L14 31L15 31L15 30L16 30L16 29L18 29L18 28L17 28L17 26L21 26L21 25L22 25L22 26L24 26L24 28L23 28L23 27L22 27L22 29L23 29L23 30L24 30L24 28L27 28L27 26L26 26L26 23L27 23L27 22L26 22L26 21L27 21L27 20L28 20L28 21L29 21L29 19L26 19L26 20L24 20L24 19L25 19L25 18L20 18L20 17L21 17L21 16L22 16L22 17L25 17L25 16L22 16L22 15L21 15L21 16L19 16L19 15L17 15L17 19L16 19L16 17L14 17L14 18L13 18L13 16L12 16L12 17L11 17L11 16L10 16L10 15L8 15L8 16L6 16L6 15ZM18 16L18 18L19 18L19 16ZM5 17L5 18L7 18L7 17ZM8 17L8 18L11 18L11 19L8 19L8 20L7 20L7 19L5 19L5 20L4 20L4 21L5 21L5 22L7 22L7 21L8 21L8 20L12 20L12 22L13 22L13 23L14 23L14 22L13 22L13 21L14 21L14 20L16 20L16 19L15 19L15 18L14 18L14 19L13 19L13 18L11 18L11 17ZM35 17L35 18L36 18L36 17ZM32 18L32 20L33 20L33 21L31 21L31 22L34 22L34 24L32 24L32 23L31 23L31 24L32 24L32 25L31 25L31 26L32 26L32 27L33 27L33 26L35 26L35 27L34 27L34 28L35 28L35 29L33 29L33 32L34 32L34 30L35 30L35 29L36 29L36 26L35 26L35 22L34 22L34 21L35 21L35 20L36 20L36 19L35 19L35 20L34 20L34 19L33 19L33 18ZM17 19L17 20L18 20L18 21L17 21L17 22L16 22L16 21L15 21L15 24L17 24L17 25L16 25L16 26L17 26L17 25L19 25L19 24L20 24L20 25L21 25L21 24L20 24L20 23L19 23L19 24L18 24L18 21L19 21L19 20L21 20L21 19L19 19L19 20L18 20L18 19ZM6 20L6 21L7 21L7 20ZM22 20L22 22L21 22L21 23L22 23L22 22L23 22L23 24L24 24L24 22L23 22L23 21L24 21L24 20ZM25 26L25 27L26 27L26 26ZM29 27L29 28L30 28L30 27ZM26 29L26 30L25 30L25 31L24 31L24 33L27 33L27 32L25 32L25 31L26 31L26 30L27 30L27 29ZM29 29L29 32L32 32L32 29ZM30 30L30 31L31 31L31 30ZM18 34L18 35L19 35L19 34ZM30 36L30 37L32 37L32 36ZM35 36L35 37L37 37L37 36ZM0 0L0 7L7 7L7 0ZM1 1L1 6L6 6L6 1ZM2 2L2 5L5 5L5 2ZM30 0L30 7L37 7L37 0ZM31 1L31 6L36 6L36 1ZM32 2L32 5L35 5L35 2ZM0 30L0 37L7 37L7 30ZM1 31L1 36L6 36L6 31ZM2 32L2 35L5 35L5 32Z" fill="#000000"/></g></g></svg>
